<?xml version="1.0" encoding="UTF-8"?>
<svg version="1.0" viewBox="0 0 96 96" xmlns="http://www.w3.org/2000/svg" xmlns:cc="http://creativecommons.org/ns#" xmlns:dc="http://purl.org/dc/elements/1.1/" xmlns:rdf="http://www.w3.org/1999/02/22-rdf-syntax-ns#" xmlns:xlink="http://www.w3.org/1999/xlink">
<defs>
<linearGradient id="c">
<stop stop-color="#f0f0f0" offset="0"/>
<stop stop-color="#aaa" offset="1"/>
</linearGradient>
<linearGradient id="u" x1="45.448" x2="45.448" y1="92.54" y2="7.0165" gradientTransform="scale(1.0059 .99417)" gradientUnits="userSpaceOnUse">
<stop offset="0"/>
<stop stop-opacity=".58824" offset="1"/>
</linearGradient>
<linearGradient id="b">
<stop stop-color="#fff" offset="0"/>
<stop stop-color="#fff" stop-opacity="0" offset="1"/>
</linearGradient>
<filter id="q" color-interpolation-filters="sRGB">
<feGaussianBlur stdDeviation="1.71"/>
</filter>
<linearGradient id="d" x1="36.357" x2="36.357" y1="6" y2="63.893" gradientUnits="userSpaceOnUse" xlink:href="#b"/>
<filter id="o" x="-.192" y="-.192" width="1.384" height="1.384" color-interpolation-filters="sRGB">
<feGaussianBlur stdDeviation="5.28"/>
</filter>
<linearGradient id="l" x1="48" x2="48" y1="20.221" y2="138.66" gradientUnits="userSpaceOnUse" xlink:href="#b"/>
<radialGradient id="g" cx="48" cy="90.172" r="42" gradientTransform="matrix(1.1573 0 0 .99591 -7.551 .19713)" gradientUnits="userSpaceOnUse" xlink:href="#b"/>
<clipPath id="t">
<rect x="6" y="6" width="84" height="84" rx="6" ry="6" fill="#fff"/>
</clipPath>
<linearGradient id="n" x1="48" x2="48" y1="90" y2="5.9877" gradientTransform="translate(0,100)" gradientUnits="userSpaceOnUse">
<stop stop-color="#2276c5" offset="0"/>
<stop stop-color="#68baf4" offset="1"/>
</linearGradient>
<clipPath id="s">
<path d="m0 0v96h96v-96h-96zm12 6h72c3.324 0 6 2.676 6 6v72c0 3.324-2.676 6-6 6h-72c-3.324 0-6-2.676-6-6v-72c0-3.324 2.676-6 6-6z" fill="#fff"/>
</clipPath>
<linearGradient id="k" x1="44.512" x2="44.512" y1="6" y2="90.015" gradientUnits="userSpaceOnUse" xlink:href="#c"/>
<clipPath id="r">
<rect x="10" y="10" width="76" height="76" rx="4" ry="4" fill="#fff"/>
</clipPath>
<filter id="p" color-interpolation-filters="sRGB">
<feGaussianBlur stdDeviation="1.14"/>
</filter>
<linearGradient id="e" x1="45.448" x2="45.448" y1="92.54" y2="7.0165" gradientTransform="matrix(1.0059 0 0 .99417 100 0)" gradientUnits="userSpaceOnUse">
<stop offset="0"/>
<stop stop-opacity=".58824" offset="1"/>
</linearGradient>
<linearGradient id="a" x1="32.251" x2="32.251" y1="6.1317" y2="90.239" gradientTransform="matrix(1.0238 0 0 -1.0119 -1.1429 98.071)" gradientUnits="userSpaceOnUse" xlink:href="#e"/>
<linearGradient id="j" x1="32.251" x2="32.251" y1="6.1317" y2="90.239" gradientTransform="matrix(1,0,0,-1,0,97)" gradientUnits="userSpaceOnUse" xlink:href="#e"/>
<radialGradient id="f" cx="48" cy="90.172" r="42" gradientTransform="matrix(1.1573 0 0 .99591 -7.551 .19713)" gradientUnits="userSpaceOnUse" xlink:href="#b"/>
<linearGradient id="i" x1="104" x2="120" y1="8" y2="8" gradientTransform="translate(-104,104)" gradientUnits="userSpaceOnUse" xlink:href="#c"/>
<linearGradient id="h" x1="104" x2="120" y1="8" y2="8" gradientTransform="translate(-144,104)" gradientUnits="userSpaceOnUse">
<stop stop-color="#c80000" offset="0"/>
<stop stop-color="#f3604d" offset="1"/>
</linearGradient>
<linearGradient id="m" x1="10.458" x2="10.458" y1="4.3967" y2="19.29" gradientTransform="matrix(3.4919 0 0 3.0248 10.25 10.608)" gradientUnits="userSpaceOnUse" xlink:href="#c"/>
</defs>
<metadata>
<rdf:RDF>
<cc:Work rdf:about="">
<dc:format>image/svg+xml</dc:format>
<dc:type rdf:resource="http://purl.org/dc/dcmitype/StillImage"/>
<dc:title/>
</cc:Work>
</rdf:RDF>
</metadata>
<g display="none">
<rect x="5" y="7" width="86" height="85" rx="6" ry="6" clip-path="url(#s)" fill="url(#u)" filter="url(#q)" opacity=".9"/>
</g>
<g>
<path d="m12 3.9688c-5.5111 0-10.031 4.5202-10.031 10.031v71c0 5.5111 4.5202 10.031 10.031 10.031h72c5.5111 0 10.031-4.5202 10.031-10.031v-71c0-5.5111-4.5202-10.031-10.031-10.031h-72zm0 2.0312h72c3.324 0 6 2.676 6 6v72c0 3.324-2.676 6-6 6h-72c-3.324 0-6-2.676-6-6v-72c0-3.324 2.676-6 6-6z" fill="url(#a)" opacity=".08"/>
<path d="m12 4.9688c-4.9716 0-9.0312 4.0596-9.0312 9.0312v71c0 4.9716 4.0596 9.0312 9.0312 9.0312h72c4.9716 0 9.0312-4.0596 9.0312-9.0312v-71c0-4.9716-4.0596-9.0312-9.0312-9.0312h-72zm0 1.0312h72c3.324 0 6 2.676 6 6v72c0 3.324-2.676 6-6 6h-72c-3.324 0-6-2.676-6-6v-72c0-3.324 2.676-6 6-6z" fill="url(#a)" opacity=".1"/>
<path d="m11.188 6.0312c-4.0275 0.41065-7.1875 3.8352-7.1875 7.9688v71c0 4.4091 3.5909 8 8 8h72c4.4091 0 8-3.5909 8-8v-71c0-4.1971-3.259-7.646-7.375-7.9688 3.0329 0.30617 5.375 2.8525 5.375 5.9688v72c0 3.324-2.676 6-6 6h-72c-3.324 0-6-2.676-6-6v-72c0-3.1162 2.3421-5.6626 5.375-5.9688-0.06227 0.00488-0.12563-0.00631-0.1875 0z" fill="url(#a)" opacity=".2"/>
<path d="m6.4375 9.75c-0.89949 1.1774-1.4375 2.6473-1.4375 4.25v71c0 3.878 3.122 7 7 7h72c3.878 0 7-3.122 7-7v-71c0-1.6027-0.53801-3.0726-1.4375-4.25 0.27932 0.6941 0.4375 1.4536 0.4375 2.25v72c0 3.324-2.676 6-6 6h-72c-3.324 0-6-2.676-6-6v-72c0-0.79638 0.15818-1.5559 0.4375-2.25z" fill="url(#a)" opacity=".3"/>
<path d="m6 84v1c0 3.324 2.676 6 6 6h72c3.324 0 6-2.676 6-6v-1c0 3.324-2.676 6-6 6h-72c-3.324 0-6-2.676-6-6z" fill="url(#j)" opacity=".45"/>
</g>
<g display="none">
<rect x="6" y="6" width="84" height="84" rx="6" ry="6" opacity=".8"/>
<path d="m14 10c-2.216 0-4 1.784-4 4v68c0 2.216 1.784 4 4 4h68c2.216 0 4-1.784 4-4v-68c0-2.216-1.784-4-4-4h-68zm0 3.0625h68c0.57877 0 0.9375 0.35873 0.9375 0.9375v68c0 0.57877-0.35873 0.9375-0.9375 0.9375h-68c-0.57877 0-0.9375-0.35873-0.9375-0.9375v-68c0-0.57877 0.35873-0.9375 0.9375-0.9375z" opacity=".08"/>
<path d="m12 6c-3.324 0-6 2.676-6 6v72c0 3.324 2.676 6 6 6h72c3.324 0 6-2.676 6-6v-72c0-3.324-2.676-6-6-6h-72zm2 4h68c2.216 0 4 1.784 4 4v68c0 2.216-1.784 4-4 4h-68c-2.216 0-4-1.784-4-4v-68c0-2.216 1.784-4 4-4z" fill="url(#k)"/>
<path d="m12 6c-3.324 0-6 2.676-6 6v2 68 2c0 0.33472 0.04135 0.6507 0.09375 0.96875 0.0487 0.2956 0.09704 0.59692 0.1875 0.875 0.00988 0.03038 0.020892 0.0636 0.03125 0.09375 0.098865 0.28777 0.23488 0.54745 0.375 0.8125 0.14459 0.27351 0.31562 0.53562 0.5 0.78125s0.37378 0.47347 0.59375 0.6875c0.43995 0.42806 0.94291 0.81453 1.5 1.0938 0.27854 0.13961 0.57347 0.24695 0.875 0.34375-0.2562-0.10022-0.48671-0.23627-0.71875-0.375-0.00741-0.0044-0.023866 0.0045-0.03125 0-0.031933-0.0193-0.062293-0.04251-0.09375-0.0625-0.1204-0.0767-0.23102-0.16351-0.34375-0.25-0.10617-0.0808-0.21328-0.16111-0.3125-0.25-0.17793-0.16143-0.34746-0.34539-0.5-0.53125-0.10758-0.13026-0.21839-0.26528-0.3125-0.40625-0.025089-0.03838-0.038446-0.08587-0.0625-0.125-0.064763-0.10303-0.13023-0.20452-0.1875-0.3125-0.10101-0.19471-0.20567-0.4157-0.28125-0.625-0.00796-0.02181-0.023589-0.04055-0.03125-0.0625-0.031825-0.09195-0.035804-0.18683-0.0625-0.28125-0.030332-0.10662-0.070389-0.20303-0.09375-0.3125-0.072879-0.34151-0.125-0.6982-0.125-1.0625v-2-68-2c0-2.7818 2.2182-5 5-5h2 68 2c2.7818 0 5 2.2182 5 5v2 68 2c0 0.3643-0.05212 0.72099-0.125 1.0625-0.04415 0.20689-0.08838 0.39766-0.15625 0.59375-0.0077 0.02195-0.0233 0.04069-0.03125 0.0625-0.06274 0.17374-0.13838 0.36745-0.21875 0.53125-0.04158 0.0828-0.07904 0.16995-0.125 0.25-0.0546 0.09721-0.12677 0.18835-0.1875 0.28125-0.09411 0.14096-0.20492 0.276-0.3125 0.40625-0.14317 0.17445-0.30314 0.347-0.46875 0.5-0.01117 0.0102-0.01998 0.02115-0.03125 0.03125-0.13839 0.12556-0.28509 0.23444-0.4375 0.34375-0.10257 0.07315-0.20432 0.15336-0.3125 0.21875-0.0074 0.0045-0.02384-0.0044-0.03125 0-0.23204 0.13873-0.46255 0.27478-0.71875 0.375 0.30153-0.0968 0.59646-0.20414 0.875-0.34375 0.55709-0.27922 1.0601-0.66569 1.5-1.0938 0.21997-0.21403 0.40937-0.44186 0.59375-0.6875s0.35541-0.50774 0.5-0.78125c0.14012-0.26505 0.27614-0.52473 0.375-0.8125 0.01041-0.03078 0.02133-0.06274 0.03125-0.09375 0.09046-0.27808 0.1388-0.5794 0.1875-0.875 0.0524-0.31805 0.09375-0.63403 0.09375-0.96875v-2-68-2c0-3.324-2.676-6-6-6h-72z" fill="url(#d)"/>
<path d="m12 90c-3.324 0-6-2.676-6-6v-2-68-2c0-0.33472 0.04135-0.6507 0.09375-0.96875 0.0487-0.2956 0.09704-0.59692 0.1875-0.875 0.00988-0.03038 0.020892-0.0636 0.03125-0.09375 0.098865-0.28777 0.23488-0.54745 0.375-0.8125 0.14459-0.27351 0.31562-0.53562 0.5-0.78125s0.37378-0.47347 0.59375-0.6875c0.43995-0.42806 0.94291-0.81453 1.5-1.0938 0.27854-0.13961 0.57347-0.24695 0.875-0.34375-0.2562 0.10022-0.48671 0.23627-0.71875 0.375-0.00741 0.0044-0.023866-0.0045-0.03125 0-0.031933 0.0193-0.062293 0.04251-0.09375 0.0625-0.1204 0.0767-0.23102 0.16351-0.34375 0.25-0.10617 0.0808-0.21328 0.16111-0.3125 0.25-0.17793 0.16143-0.34746 0.34539-0.5 0.53125-0.10758 0.13026-0.21839 0.26528-0.3125 0.40625-0.025089 0.03838-0.038446 0.08587-0.0625 0.125-0.064763 0.10303-0.13023 0.20452-0.1875 0.3125-0.10101 0.19471-0.20567 0.4157-0.28125 0.625-0.00796 0.02181-0.023589 0.04055-0.03125 0.0625-0.031825 0.09195-0.035804 0.18683-0.0625 0.28125-0.030332 0.10662-0.070389 0.20303-0.09375 0.3125-0.072879 0.34151-0.125 0.6982-0.125 1.0625v2 68 2c0 2.7818 2.2182 5 5 5h2 68 2c2.7818 0 5-2.2182 5-5v-2-68-2c0-0.3643-0.05212-0.72099-0.125-1.0625-0.04415-0.20689-0.08838-0.39766-0.15625-0.59375-0.0077-0.02195-0.0233-0.04069-0.03125-0.0625-0.06274-0.17374-0.13838-0.36745-0.21875-0.53125-0.04158-0.0828-0.07904-0.16995-0.125-0.25-0.0546-0.09721-0.12677-0.18835-0.1875-0.28125-0.09411-0.14096-0.20492-0.276-0.3125-0.40625-0.14317-0.17445-0.30314-0.347-0.46875-0.5-0.01117-0.0102-0.01998-0.02115-0.03125-0.03125-0.13839-0.12556-0.28509-0.23444-0.4375-0.34375-0.10257-0.07315-0.20432-0.15336-0.3125-0.21875-0.0074-0.0045-0.02384 0.0044-0.03125 0-0.23204-0.13873-0.46255-0.27478-0.71875-0.375 0.30153 0.0968 0.59646 0.20414 0.875 0.34375 0.55709 0.27922 1.0601 0.66569 1.5 1.0938 0.21997 0.21403 0.40937 0.44186 0.59375 0.6875s0.35541 0.50774 0.5 0.78125c0.14012 0.26505 0.27614 0.52473 0.375 0.8125 0.01041 0.03078 0.02133 0.06274 0.03125 0.09375 0.09046 0.27808 0.1388 0.5794 0.1875 0.875 0.0524 0.31805 0.09375 0.63403 0.09375 0.96875v2 68 2c0 3.324-2.676 6-6 6h-72z" fill="url(#g)" opacity=".6"/>
<rect x="6" y="106" width="84" height="84" rx="6" ry="6" fill="url(#n)"/>
<rect x="10" y="110" width="76" height="76" rx="4" ry="4" fill="#f00"/>
<path transform="translate(-110)" d="m14 9c-2.7527 0-5 2.2473-5 5v68c0 2.7527 2.2473 5 5 5h68c2.7527 0 5-2.2473 5-5v-68c0-2.7527-2.2473-5-5-5h-68zm0 2h68c1.6793 0 3 1.3207 3 3v68c0 1.6793-1.3207 3-3 3h-68c-1.6793 0-3-1.3207-3-3v-68c0-1.6793 1.3207-3 3-3z" clip-path="url(#r)" color="#000000" display="inline" filter="url(#p)" style="block-progression:tb;text-indent:0;text-transform:none"/>
<path d="m14.089 10c-2.216 0-4 1.784-4 4v68c0 2.216 1.784 4 4 4h68c2.216 0 4-1.784 4-4v-68c0-2.216-1.784-4-4-4h-68zm0 2h68c1.1403 0 2 0.8597 2 2v68c0 1.1403-0.8597 2-2 2h-68c-1.1403 0-2-0.8597-2-2v-68c0-1.1403 0.8597-2 2-2z" opacity=".16"/>
<path d="m14 10c-2.216 0-4 1.784-4 4v68c0 2.216 1.784 4 4 4h68c2.216 0 4-1.784 4-4v-68c0-2.216-1.784-4-4-4h-68zm0 1h68c1.6738 0 3 1.3262 3 3v68c0 1.6738-1.3262 3-3 3h-68c-1.6738 0-3-1.3262-3-3v-68c0-1.6738 1.3262-3 3-3z" opacity=".36"/>
</g>
<g>
<rect x="6" y="6" width="84" height="84" rx="6" ry="6" opacity=".6"/>
<path d="m12 6c-3.324 0-6 2.676-6 6v2 68 2c0 0.33472 0.04135 0.6507 0.09375 0.96875 0.0487 0.2956 0.09704 0.59692 0.1875 0.875 0.00988 0.03038 0.020892 0.0636 0.03125 0.09375 0.098865 0.28777 0.23488 0.54745 0.375 0.8125 0.14459 0.27351 0.31562 0.53562 0.5 0.78125s0.37378 0.47347 0.59375 0.6875c0.43995 0.42806 0.94291 0.81453 1.5 1.0938 0.27854 0.13961 0.57347 0.24695 0.875 0.34375-0.2562-0.10022-0.48671-0.23627-0.71875-0.375-0.00741-0.0044-0.023866 0.0045-0.03125 0-0.031933-0.0193-0.062293-0.04251-0.09375-0.0625-0.1204-0.0767-0.23102-0.16351-0.34375-0.25-0.10617-0.0808-0.21328-0.16111-0.3125-0.25-0.17793-0.16143-0.34746-0.34539-0.5-0.53125-0.10758-0.13026-0.21839-0.26528-0.3125-0.40625-0.025089-0.03838-0.038446-0.08587-0.0625-0.125-0.064763-0.10303-0.13023-0.20452-0.1875-0.3125-0.10101-0.19471-0.20567-0.4157-0.28125-0.625-0.00796-0.02181-0.023589-0.04055-0.03125-0.0625-0.031825-0.09195-0.035804-0.18683-0.0625-0.28125-0.030332-0.10662-0.070389-0.20303-0.09375-0.3125-0.072879-0.34151-0.125-0.6982-0.125-1.0625v-2-68-2c0-2.7818 2.2182-5 5-5h2 68 2c2.7818 0 5 2.2182 5 5v2 68 2c0 0.3643-0.05212 0.72099-0.125 1.0625-0.04415 0.20689-0.08838 0.39766-0.15625 0.59375-0.0077 0.02195-0.0233 0.04069-0.03125 0.0625-0.06274 0.17374-0.13838 0.36745-0.21875 0.53125-0.04158 0.0828-0.07904 0.16995-0.125 0.25-0.0546 0.09721-0.12677 0.18835-0.1875 0.28125-0.09411 0.14096-0.20492 0.276-0.3125 0.40625-0.14317 0.17445-0.30314 0.347-0.46875 0.5-0.01117 0.0102-0.01998 0.02115-0.03125 0.03125-0.13839 0.12556-0.28509 0.23444-0.4375 0.34375-0.10257 0.07315-0.20432 0.15336-0.3125 0.21875-0.0074 0.0045-0.02384-0.0044-0.03125 0-0.23204 0.13873-0.46255 0.27478-0.71875 0.375 0.30153-0.0968 0.59646-0.20414 0.875-0.34375 0.55709-0.27922 1.0601-0.66569 1.5-1.0938 0.21997-0.21403 0.40937-0.44186 0.59375-0.6875s0.35541-0.50774 0.5-0.78125c0.14012-0.26505 0.27614-0.52473 0.375-0.8125 0.01041-0.03078 0.02133-0.06274 0.03125-0.09375 0.09046-0.27808 0.1388-0.5794 0.1875-0.875 0.0524-0.31805 0.09375-0.63403 0.09375-0.96875v-2-68-2c0-3.324-2.676-6-6-6h-72z" fill="url(#d)" opacity=".01"/>
<path d="m12 90c-3.324 0-6-2.676-6-6v-2-68-2c0-0.33472 0.04135-0.6507 0.09375-0.96875 0.0487-0.2956 0.09704-0.59692 0.1875-0.875 0.00988-0.03038 0.020892-0.0636 0.03125-0.09375 0.098865-0.28777 0.23488-0.54745 0.375-0.8125 0.14459-0.27351 0.31562-0.53562 0.5-0.78125s0.37378-0.47347 0.59375-0.6875c0.43995-0.42806 0.94291-0.81453 1.5-1.0938 0.27854-0.13961 0.57347-0.24695 0.875-0.34375-0.2562 0.10022-0.48671 0.23627-0.71875 0.375-0.00741 0.0044-0.023866-0.0045-0.03125 0-0.031933 0.0193-0.062293 0.04251-0.09375 0.0625-0.1204 0.0767-0.23102 0.16351-0.34375 0.25-0.10617 0.0808-0.21328 0.16111-0.3125 0.25-0.17793 0.16143-0.34746 0.34539-0.5 0.53125-0.10758 0.13026-0.21839 0.26528-0.3125 0.40625-0.025089 0.03838-0.038446 0.08587-0.0625 0.125-0.064763 0.10303-0.13023 0.20452-0.1875 0.3125-0.10101 0.19471-0.20567 0.4157-0.28125 0.625-0.00796 0.02181-0.023589 0.04055-0.03125 0.0625-0.031825 0.09195-0.035804 0.18683-0.0625 0.28125-0.030332 0.10662-0.070389 0.20303-0.09375 0.3125-0.072879 0.34151-0.125 0.6982-0.125 1.0625v2 68 2c0 2.7818 2.2182 5 5 5h2 68 2c2.7818 0 5-2.2182 5-5v-2-68-2c0-0.3643-0.05212-0.72099-0.125-1.0625-0.04415-0.20689-0.08838-0.39766-0.15625-0.59375-0.0077-0.02195-0.0233-0.04069-0.03125-0.0625-0.06274-0.17374-0.13838-0.36745-0.21875-0.53125-0.04158-0.0828-0.07904-0.16995-0.125-0.25-0.0546-0.09721-0.12677-0.18835-0.1875-0.28125-0.09411-0.14096-0.20492-0.276-0.3125-0.40625-0.14317-0.17445-0.30314-0.347-0.46875-0.5-0.01117-0.0102-0.01998-0.02115-0.03125-0.03125-0.13839-0.12556-0.28509-0.23444-0.4375-0.34375-0.10257-0.07315-0.20432-0.15336-0.3125-0.21875-0.0074-0.0045-0.02384 0.0044-0.03125 0-0.23204-0.13873-0.46255-0.27478-0.71875-0.375 0.30153 0.0968 0.59646 0.20414 0.875 0.34375 0.55709 0.27922 1.0601 0.66569 1.5 1.0938 0.21997 0.21403 0.40937 0.44186 0.59375 0.6875s0.35541 0.50774 0.5 0.78125c0.14012 0.26505 0.27614 0.52473 0.375 0.8125 0.01041 0.03078 0.02133 0.06274 0.03125 0.09375 0.09046 0.27808 0.1388 0.5794 0.1875 0.875 0.0524 0.31805 0.09375 0.63403 0.09375 0.96875v2 68 2c0 3.324-2.676 6-6 6h-72z" fill="url(#f)" opacity=".15"/>
</g>
<g display="none">
<rect x="15" y="15" width="66" height="66" rx="12" ry="12" clip-path="url(#t)" fill="url(#l)" filter="url(#o)" opacity=".1" stroke="#fff" stroke-linecap="round" stroke-width=".5"/>
</g>
<g>
<path transform="translate(0,-1)" d="m49.469 24.031c-12.331-3e-6 -22.416 9.2289-24.031 21.125h-5.4375c-1.76e-4 2e-6 -0.12482-1.4e-5 -0.125 0s-0.12483 0.03122-0.125 0.03125c-1.74e-4 2.5e-5 -0.12483-3.7e-5 -0.125 0s-0.12483 0.0312-0.125 0.03125c-1.69e-4 4.8e-5 -0.12483 0.03119-0.125 0.03125s-0.12484 0.06243-0.125 0.0625c-1.61e-4 7.1e-5 -0.12484 0.06242-0.125 0.0625-1.56e-4 8.1e-5 -0.0936 0.06241-0.09375 0.0625-1.5e-4 9.1e-5 -0.09361 0.0624-0.09375 0.0625-1.44e-4 1.01e-4 -0.12486 0.06239-0.125 0.0625-1.37e-4 1.11e-4 -0.09362 0.09363-0.09375 0.09375-1.29e-4 1.2e-4 -0.09363 0.09362-0.09375 0.09375-1.21e-4 1.28e-4 -0.06239 0.09361-0.0625 0.09375-1.12e-4 1.36e-4 -0.09365 0.09361-0.09375 0.09375-1.03e-4 1.43e-4 -0.06241 0.0936-0.0625 0.09375-9.3e-5 1.49e-4 -0.06242 0.12484-0.0625 0.125-8.3e-5 1.55e-4 -0.06243 0.12484-0.0625 0.125-7.2e-5 1.61e-4 -0.03119 0.09358-0.03125 0.09375-6.1e-5 1.65e-4 -0.06245 0.12483-0.0625 0.125s-0.03121 0.12483-0.03125 0.125c-3.9e-5 1.72e-4 2.7e-5 0.12483 0 0.125s-0.03123 0.12482-0.03125 0.125c-1.5e-5 1.75e-4 4e-6 0.12482 0 0.125s-8e-6 0.12482 0 0.125-2e-5 0.12482 0 0.125 0.03122 0.12483 0.03125 0.125c3.2e-5 1.73e-4 0.03121 0.12483 0.03125 0.125 4.3e-5 1.71e-4 0.0312 0.12483 0.03125 0.125 5.4e-5 1.67e-4 0.03118 0.12484 0.03125 0.125 6.6e-5 1.63e-4 0.06242 0.12484 0.0625 0.125 7.6e-5 1.59e-4 0.06241 0.0936 0.0625 0.09375 8.7e-5 1.53e-4 0.0624 0.12485 0.0625 0.125l11.25 16.844c9e-5 1.31e-4 0.0624 0.09362 0.0625 0.09375 9.8e-5 1.26e-4 0.09364 0.09363 0.09375 0.09375 1.05e-4 1.19e-4 0.06239 0.06239 0.0625 0.0625 1.12e-4 1.13e-4 0.09363 0.09364 0.09375 0.09375 1.19e-4 1.06e-4 0.09362 0.0624 0.09375 0.0625 1.25e-4 9.8e-5 0.09362 0.06241 0.09375 0.0625 1.31e-4 9.1e-5 0.09361 0.06242 0.09375 0.0625 1.36e-4 8.3e-5 0.09361 0.06243 0.09375 0.0625 1.41e-4 7.4e-5 0.09361 0.06243 0.09375 0.0625 1.45e-4 6.6e-5 0.12485 0.03119 0.125 0.03125 1.49e-4 5.7e-5 0.0936 0.0312 0.09375 0.03125 1.52e-4 4.7e-5 0.12484 0.03121 0.125 0.03125 1.55e-4 3.8e-5 0.09359 0.03122 0.09375 0.03125 1.57e-4 2.9e-5 0.12484 0.03123 0.125 0.03125 1.58e-4 1.9e-5 0.09359-1e-5 0.09375 0 1.59e-4 1e-5 0.12484 0 0.125 0s0.12484 1e-5 0.125 0 0.09359 1.9e-5 0.09375 0c1.58e-4 -1.9e-5 0.12484-0.03122 0.125-0.03125 1.57e-4 -2.9e-5 0.0936-0.03121 0.09375-0.03125 1.55e-4 -3.8e-5 0.12485-0.0312 0.125-0.03125 1.52e-4 -4.7e-5 0.0936-0.03119 0.09375-0.03125 1.49e-4 -5.7e-5 0.12486-0.03118 0.125-0.03125 1.45e-4 -6.6e-5 0.09361-0.06243 0.09375-0.0625 1.41e-4 -7.4e-5 0.09361-0.06242 0.09375-0.0625 1.36e-4 -8.3e-5 0.09362-0.06241 0.09375-0.0625 1.31e-4 -9.1e-5 0.09363-0.0624 0.09375-0.0625 1.25e-4 -9.8e-5 0.09363-0.06239 0.09375-0.0625 1.19e-4 -1.06e-4 0.09364-0.09364 0.09375-0.09375 1.12e-4 -1.13e-4 0.0624-0.06238 0.0625-0.0625 1.05e-4 -1.19e-4 0.09365-0.09362 0.09375-0.09375 9.8e-5 -1.26e-4 0.06241-0.09362 0.0625-0.09375l11.281-16.844c9.7e-5 -1.47e-4 0.06241-0.12485 0.0625-0.125 8.7e-5 -1.53e-4 0.06242-0.09359 0.0625-0.09375 7.6e-5 -1.59e-4 0.06243-0.12484 0.0625-0.125 6.6e-5 -1.63e-4 0.0312-0.12483 0.03125-0.125 5.4e-5 -1.67e-4 0.03121-0.12483 0.03125-0.125 4.3e-5 -1.71e-4 0.03122-0.12483 0.03125-0.125 3.2e-5 -1.73e-4 0.03123-0.12482 0.03125-0.125s-8e-6 -0.12482 0-0.125 4e-6 -0.12482 0-0.125 1.5e-5 -0.12482 0-0.125-0.03122-0.12483-0.03125-0.125c-2.7e-5 -1.74e-4 3.9e-5 -0.12483 0-0.125s-0.0312-0.12483-0.03125-0.125-0.06244-0.12484-0.0625-0.125c-6.1e-5 -1.65e-4 -0.03118-0.09359-0.03125-0.09375-7.2e-5 -1.61e-4 -0.06242-0.12484-0.0625-0.125-8.3e-5 -1.55e-4 -0.06241-0.12485-0.0625-0.125-9.3e-5 -1.49e-4 -0.0624-0.09361-0.0625-0.09375-1.03e-4 -1.43e-4 -0.09364-0.09361-0.09375-0.09375-1.12e-4 -1.36e-4 -0.06238-0.09362-0.0625-0.09375-1.21e-4 -1.28e-4 -0.09362-0.09363-0.09375-0.09375-1.29e-4 -1.2e-4 -0.09361-0.09364-0.09375-0.09375-1.37e-4 -1.11e-4 -0.12486-0.0624-0.125-0.0625-1.44e-4 -1.01e-4 -0.0936-0.06241-0.09375-0.0625-1.5e-4 -9.1e-5 -0.09359-0.06242-0.09375-0.0625-1.56e-4 -8.1e-5 -0.12484-0.06243-0.125-0.0625-1.61e-4 -7.1e-5 -0.12483-0.06244-0.125-0.0625s-0.12483-0.0312-0.125-0.03125c-1.69e-4 -4.8e-5 -0.12483-0.03121-0.125-0.03125-1.72e-4 -3.7e-5 -0.12483 2.5e-5 -0.125 0s-0.12482-0.03124-0.125-0.03125c-1.75e-4 -1.4e-5 -0.12482 2e-6 -0.125 0h-5.5312c1.4579-5.6365 6.3497-9.8438 12.469-9.8438 7.2703 3e-6 13.125 5.8547 13.125 13.125 0 7.2705-5.8496 13.094-13.125 13.094-2.55e-4 3e-6 -0.18725-2.7e-5 -0.1875 0s-0.18725 0.0312-0.1875 0.03125c-2.49e-4 5.2e-5 -0.18726 0.06242-0.1875 0.0625-2.43e-4 7.6e-5 -0.15602 0.0624-0.15625 0.0625-2.35e-4 9.9e-5 -0.15603 0.06238-0.15625 0.0625-2.24e-4 1.21e-4 -0.15604 0.09361-0.15625 0.09375-2.11e-4 1.42e-4 -0.15605 0.12484-0.15625 0.125s-0.12482 0.12482-0.125 0.125-0.12484 0.1248-0.125 0.125-0.12486 0.15604-0.125 0.15625-0.09363 0.15603-0.09375 0.15625c-1.21e-4 2.24e-4 -0.0624 0.15602-0.0625 0.15625-9.9e-5 2.35e-4 -0.06242 0.15601-0.0625 0.15625-7.6e-5 2.43e-4 -0.06245 0.18725-0.0625 0.1875-5.2e-5 2.49e-4 -0.03122 0.18725-0.03125 0.1875-2.7e-5 2.53e-4 3e-6 0.18724 0 0.1875v7.5312c3e-6 2.55e-4 -2.7e-5 0.18725 0 0.1875s0.0312 0.18725 0.03125 0.1875c5.2e-5 2.49e-4 0.06242 0.18726 0.0625 0.1875 7.6e-5 2.43e-4 0.0624 0.15602 0.0625 0.15625 9.9e-5 2.35e-4 0.06238 0.15603 0.0625 0.15625 1.21e-4 2.24e-4 0.09361 0.15604 0.09375 0.15625 1.42e-4 2.11e-4 0.12484 0.15605 0.125 0.15625s0.12482 0.12482 0.125 0.125 0.1248 0.12484 0.125 0.125 0.15604 0.12486 0.15625 0.125 0.15603 0.09363 0.15625 0.09375c2.24e-4 1.21e-4 0.15602 0.0624 0.15625 0.0625 2.35e-4 9.9e-5 0.15601 0.06242 0.15625 0.0625 2.43e-4 7.6e-5 0.18725 0.06245 0.1875 0.0625 2.49e-4 5.2e-5 0.18725 0.03122 0.1875 0.03125 2.53e-4 2.7e-5 0.18724-3e-6 0.1875 0 13.452 0 24.406-10.92 24.406-24.375 3e-6 -13.455-10.952-24.406-24.406-24.406z" opacity=".1"/>
<path transform="translate(0,-1)" d="m49.469 24.969c-12.149-3e-6 -22.067 9.2817-23.25 21.125h-6.2188a0.94758 0.94758 0 0 0-0.78125 1.4688l11.25 16.844a0.94758 0.94758 0 0 0 1.5625 0l11.281-16.844a0.94758 0.94758 0 0 0-0.78125-1.4688h-6.8438c1.1044-6.6548 6.7973-11.719 13.781-11.719 7.7767 3e-6 14.062 6.2858 14.062 14.062 0 7.7767-6.2834 14.031-14.062 14.031a0.94758 0.94758 0 0 0-0.9375 0.9375v7.5312a0.94758 0.94758 0 0 0 0.9375 0.9375c12.944 0 23.469-10.492 23.469-23.438 3e-6 -12.945-10.523-23.469-23.469-23.469z" opacity=".15"/>
<path d="m20 46.022 11.261 16.868 11.261-16.868h-7.949c0.69246-7.6416 7.0799-13.58 14.904-13.58 8.2882 3e-6 14.987 6.6991 14.987 14.987 0 8.2882-6.6991 14.987-14.987 14.987v7.535c12.432 0 22.522-10.09 22.522-22.522 3e-6 -12.432-10.09-22.522-22.522-22.522-11.96-3e-6 -21.713 9.3364-22.439 21.115h-7.0382z" opacity=".3"/>
<rect transform="matrix(0,1,1,0,0,0)" y="104" width="16" height="16" color="#000000" fill="url(#i)"/>
<text x="104" y="48" fill="#000000" font-family="Liberation Sans" font-size="4px" letter-spacing="0px" word-spacing="0px" style="line-height:125%" xml:space="preserve"><tspan x="104" y="48">Shadow opacity : 30, 15, 10, (8)</tspan></text>
<rect transform="rotate(-90)" x="-40" y="104" width="16" height="16" color="#000000" fill="url(#h)"/>
<text x="124" y="32" fill="#000000" font-family="Liberation Sans" font-size="4px" letter-spacing="0px" word-spacing="0px" style="line-height:125%" xml:space="preserve"><tspan x="124" y="32">Bevel opacity : 30 / 10</tspan></text>
<text x="124" y="8" fill="#000000" font-family="Liberation Sans" font-size="4px" letter-spacing="0px" word-spacing="0px" style="line-height:125%" xml:space="preserve"><tspan x="124" y="8">Bevel opacity : 75 / 15</tspan></text>
<path d="m20 45.022 11.261 16.868 11.261-16.868h-7.949c0.69246-7.6416 7.0799-13.58 14.904-13.58 8.2882 3e-6 14.987 6.6991 14.987 14.987 0 8.2882-6.6991 14.987-14.987 14.987v7.535c12.432 0 22.522-10.09 22.522-22.522 3e-6 -12.432-10.09-22.522-22.522-22.522-11.96-3e-6 -21.713 9.3364-22.439 21.115h-7.0382z" fill="url(#m)"/>
<path d="m49.469 23.906c-11.96-3e-6 -21.711 9.3467-22.438 21.125h-7.0312l0.65625 1h6.375c0.72653-11.778 10.477-21.125 22.438-21.125 12.264 0 22.264 9.8306 22.531 22.031 0.0037-0.16701 0-0.33212 0-0.5 3e-6 -12.432-10.099-22.531-22.531-22.531zm-14.75 21.125c-0.05291 0.33256-0.12547 0.66034-0.15625 1h7.3125l0.65625-1h-7.8125zm29.719 1.9062c-0.26579 8.0534-6.8497 14.469-14.969 14.469v1c8.2882 0 15-6.6806 15-14.969 0-0.16916-0.02571-0.33221-0.03125-0.5z" fill="#fff" opacity=".75"/>
<path d="m49.469 30.438c-7.8246 0-14.214 5.9521-14.906 13.594h0.15625c1.1374-7.1493 7.2732-12.594 14.75-12.594 8.119 3e-6 14.703 6.4466 14.969 14.5 0.0055-0.16779 0.03125-0.33084 0.03125-0.5 0-8.2882-6.7118-15-15-15zm-29.469 14.594 11.25 16.844 11.281-16.844h-0.65625l-10.625 15.844-10.594-15.844h-0.65625zm52 0.90625c-0.26743 12.201-10.267 22-22.531 22v1c12.432 0 22.531-10.068 22.531-22.5 0-0.16788 0.0037-0.33299 0-0.5z" opacity=".15"/>
</g>
</svg>
